<svg aria-hidden="true" style="position: absolute; width: 0; height: 0; overflow: hidden;" version="1.1"
  xmlns="http://www.w3.org/2000/svg" xmlns:xlink="http://www.w3.org/1999/xlink">
  <defs>
    <symbol id="icon-Polygon" viewBox="0 0 28 32">
      <path fill="var(--color1, #fefefe)"
        d="M14.124 32c-0.282 0-0.537-0.080-0.789-0.195-0.335-0.152-0.664-0.35-0.982-0.532l-10.57-6.104c-0.317-0.185-0.654-0.37-0.952-0.582-0.227-0.162-0.425-0.342-0.564-0.587-0.142-0.242-0.197-0.505-0.225-0.782-0.037-0.365-0.030-0.749-0.030-1.114v-12.209c0-0.365-0.007-0.749 0.030-1.114 0.027-0.277 0.082-0.537 0.225-0.782 0.14-0.245 0.337-0.422 0.564-0.584 0.297-0.215 0.634-0.4 0.952-0.584l10.57-6.102c0.317-0.185 0.647-0.382 0.982-0.534 0.252-0.115 0.507-0.195 0.789-0.195 0.28 0 0.534 0.080 0.789 0.195 0.332 0.152 0.662 0.35 0.979 0.534l10.573 6.102c0.317 0.185 0.652 0.37 0.952 0.584 0.225 0.162 0.422 0.34 0.564 0.584 0.14 0.245 0.197 0.505 0.225 0.782 0.035 0.365 0.027 0.749 0.027 1.114v12.209c0 0.365 0.008 0.749-0.027 1.114-0.027 0.277-0.085 0.54-0.225 0.782-0.142 0.245-0.34 0.425-0.567 0.587-0.297 0.212-0.632 0.397-0.949 0.582l-10.573 6.104c-0.317 0.182-0.647 0.38-0.979 0.532-0.255 0.115-0.51 0.195-0.789 0.195z">
      </path>
      <path
        d="M15.685 1.086l10.573 6.104c0.405 0.232 0.697 0.402 0.917 0.559 0.217 0.157 0.352 0.295 0.447 0.457s0.145 0.35 0.172 0.614c0.025 0.27 0.025 0.609 0.025 1.074v12.209c0 0.467 0 0.804-0.025 1.074-0.027 0.265-0.077 0.452-0.172 0.614-0.095 0.165-0.23 0.302-0.447 0.457-0.22 0.157-0.512 0.327-0.917 0.559l-10.573 6.104c-0.405 0.232-0.697 0.402-0.944 0.515-0.242 0.11-0.43 0.157-0.617 0.157-0.19 0-0.377-0.047-0.619-0.157-0.247-0.112-0.54-0.282-0.944-0.515l-10.57-6.104c-0.405-0.232-0.697-0.402-0.919-0.559-0.215-0.155-0.352-0.292-0.445-0.457-0.095-0.162-0.147-0.35-0.172-0.614-0.027-0.27-0.027-0.607-0.027-1.074v-12.209c0-0.465 0-0.804 0.027-1.074 0.025-0.265 0.077-0.452 0.172-0.614 0.092-0.162 0.23-0.3 0.445-0.457 0.222-0.157 0.515-0.327 0.919-0.559l10.57-6.104c0.405-0.232 0.697-0.402 0.944-0.512 0.242-0.112 0.43-0.16 0.619-0.16 0.187 0 0.375 0.047 0.617 0.16 0.247 0.11 0.54 0.28 0.944 0.512z">
      </path>
    </symbol>

  </defs>
</svg>