<svg aria-hidden="true" style="position: absolute; width: 0; height: 0; overflow: hidden;" version="1.1"
  xmlns="http://www.w3.org/2000/svg" xmlns:xlink="http://www.w3.org/1999/xlink">
  <defs>
    <symbol id="icon-PolygonTwo" viewBox="0 0 28 32">
      <path fill=" var(--color1, #c5c6c6)"
        d="M14.115 32c-0.282 0-0.537-0.080-0.789-0.195-0.335-0.152-0.664-0.349-0.981-0.532l-10.571-6.104c-0.317-0.185-0.654-0.369-0.952-0.582-0.227-0.162-0.424-0.342-0.564-0.586-0.142-0.243-0.197-0.504-0.225-0.782-0.037-0.365-0.029-0.749-0.029-1.114v-12.209c0-0.365-0.008-0.749 0.029-1.114 0.028-0.278 0.083-0.538 0.225-0.782 0.14-0.245 0.338-0.422 0.564-0.584 0.298-0.214 0.635-0.4 0.952-0.584l10.571-6.102c0.317-0.185 0.646-0.382 0.981-0.534 0.252-0.115 0.507-0.195 0.789-0.195 0.28 0 0.535 0.080 0.79 0.195 0.332 0.152 0.662 0.349 0.978 0.534l10.572 6.102c0.318 0.185 0.652 0.37 0.952 0.584 0.225 0.163 0.423 0.34 0.564 0.584 0.14 0.245 0.198 0.504 0.225 0.782 0.035 0.365 0.028 0.749 0.028 1.114v12.209c0 0.365 0.008 0.749-0.028 1.114-0.027 0.278-0.085 0.54-0.225 0.782-0.142 0.245-0.34 0.424-0.566 0.586-0.298 0.213-0.632 0.398-0.95 0.582l-10.572 6.104c-0.317 0.183-0.646 0.38-0.978 0.532-0.255 0.115-0.51 0.195-0.79 0.195zM14.115 31.801c0.25 0 0.482-0.074 0.707-0.177 0.331-0.15 0.647-0.341 0.962-0.523l10.572-6.104c0.315-0.182 0.637-0.36 0.933-0.572 0.204-0.145 0.384-0.306 0.51-0.524 0.126-0.216 0.175-0.455 0.199-0.701 0.035-0.363 0.027-0.731 0.027-1.095v-12.209c0-0.364 0.009-0.732-0.027-1.095-0.024-0.247-0.073-0.484-0.199-0.701s-0.306-0.378-0.508-0.523c-0.296-0.213-0.619-0.391-0.935-0.574l-10.572-6.102c-0.316-0.182-0.63-0.374-0.962-0.525-0.226-0.103-0.457-0.177-0.707-0.177s-0.481 0.074-0.706 0.177c-0.333 0.151-0.648 0.343-0.965 0.525l-10.57 6.102c-0.316 0.183-0.639 0.361-0.936 0.574-0.202 0.146-0.383 0.305-0.508 0.523s-0.174 0.454-0.199 0.702c-0.036 0.362-0.029 0.73-0.029 1.094v12.209c0 0.364-0.008 0.732 0.029 1.094 0.025 0.247 0.073 0.485 0.199 0.702s0.306 0.38 0.508 0.524c0.297 0.212 0.62 0.389 0.936 0.572l10.57 6.104c0.316 0.183 0.632 0.372 0.965 0.523 0.226 0.103 0.456 0.177 0.706 0.177z">
      </path>
    </symbol>
  </defs>
</svg>