<svg aria-hidden="true" style="position: absolute; width: 0; height: 0; overflow: hidden;" version="1.1"
  xmlns="http://www.w3.org/2000/svg" xmlns:xlink="http://www.w3.org/1999/xlink">
  <defs>
    <symbol id="Ellipse" viewBox="0 0 32 32">
      <path fill="#fff" style="fill: var(--color1, #fff)"
        d="M22.601 16.112c0 3.584-2.905 6.489-6.489 6.489s-6.489-2.905-6.489-6.489c0-3.584 2.905-6.489 6.489-6.489s6.489 2.905 6.489 6.489z">
      </path>
      <path fill="rgba(254,254,254,0)" style="fill: var(--color1, rgba(254,254,254,0))"
        d="M32 15.978c0 8.832-7.19 16.022-16.022 16.022s-15.978-7.19-15.978-16.022c0-8.832 7.146-15.978 15.978-15.978s16.022 7.146 16.022 15.978zM30.802 15.978c0-8.166-6.613-14.779-14.824-14.779-8.166 0-14.779 6.613-14.779 14.779 0 8.211 6.613 14.824 14.779 14.824 8.211 0 14.824-6.613 14.824-14.824z">
      </path>
    </symbol>
  </defs>
</svg>